<?xml version="1.0" encoding="UTF-8" standalone="no"?>
<!-- Created with Inkscape (http://www.inkscape.org/) -->

<svg
   width="96.991661mm"
   height="17.830208mm"
   viewBox="0 0 96.991661 17.830208"
   version="1.1"
   id="svg5"
   xml:space="preserve"
   sodipodi:docname="purpleSector_logo.svg"
   inkscape:version="1.2.2 (b0a8486541, 2022-12-01)"
   xmlns:inkscape="http://www.inkscape.org/namespaces/inkscape"
   xmlns:sodipodi="http://sodipodi.sourceforge.net/DTD/sodipodi-0.dtd"
   xmlns="http://www.w3.org/2000/svg"
   xmlns:svg="http://www.w3.org/2000/svg"><sodipodi:namedview
     id="namedview7"
     pagecolor="#ffffff"
     bordercolor="#000000"
     borderopacity="0.25"
     inkscape:showpageshadow="2"
     inkscape:pageopacity="0.0"
     inkscape:pagecheckerboard="0"
     inkscape:deskcolor="#d1d1d1"
     inkscape:document-units="mm"
     showgrid="false"
     inkscape:zoom="3.5020156"
     inkscape:cx="183.323"
     inkscape:cy="33.837656"
     inkscape:window-width="1486"
     inkscape:window-height="891"
     inkscape:window-x="0"
     inkscape:window-y="0"
     inkscape:window-maximized="1"
     inkscape:current-layer="svg5" /><defs
     id="defs2" /><g
     inkscape:label="Layer 1"
     inkscape:groupmode="layer"
     id="layer1"
     transform="translate(-39.403912,-36.42229)"><rect
       style="fill:#a954f7;fill-opacity:1;stroke-width:0.264583"
       id="rect376"
       width="16.682266"
       height="17.82412"
       x="39.403912"
       y="36.428375" /><rect
       style="fill:#000000;stroke-width:0.581702"
       id="rect376-3"
       width="80.636955"
       height="17.82412"
       x="55.758614"
       y="36.422287" /></g><text
     xml:space="preserve"
     style="font-style:normal;font-variant:normal;font-weight:normal;font-stretch:normal;font-size:8.46667px;font-family:Impact;-inkscape-font-specification:Impact;letter-spacing:0px;word-spacing:0.529167px;fill:#a954f7;fill-opacity:1;stroke-width:0.264583"
     x="20.947495"
     y="11.832627"
     id="text272"><tspan
       sodipodi:role="line"
       id="tspan270"
       style="font-style:normal;font-variant:normal;font-weight:bold;font-stretch:normal;font-size:8.46667px;font-family:Arial;-inkscape-font-specification:'Arial Bold';fill:#a954f7;fill-opacity:1;stroke-width:0.264583"
       x="20.947495"
       y="11.832627">PURPLE SECTOR</tspan></text><g
     inkscape:groupmode="layer"
     id="layer2"
     inkscape:label="Layer2"
     transform="translate(-39.403912,-36.42229)"><g
       style="fill:#ffffff"
       id="g58"
       transform="matrix(0.01620419,0,0,0.01620419,39.821022,53.565444)"><path
         d="m 360,-840 v -80 h 240 v 80 z m 80,440 h 80 v -240 h -80 z m 40,320 Q 406,-80 340.5,-108.5 275,-137 226,-186 177,-235 148.5,-300.5 120,-366 120,-440 120,-514 148.5,-579.5 177,-645 226,-694 275,-743 340.5,-771.5 406,-800 480,-800 q 62,0 119,20 57,20 107,58 l 56,-56 56,56 -56,56 q 38,50 58,107 20,57 20,119 0,74 -28.5,139.5 Q 783,-235 734,-186 685,-137 619.5,-108.5 554,-80 480,-80 Z m 0,-80 q 116,0 198,-82 82,-82 82,-198 0,-116 -82,-198 -82,-82 -198,-82 -116,0 -198,82 -82,82 -82,198 0,116 82,198 82,82 198,82 z m 0,-280 z"
         id="path49"
         style="fill:#ffffff" /></g></g></svg>
